<mxfile host="app.diagrams.net" modified="2023-01-10T03:04:36.633Z" agent="5.0 (Windows NT 10.0; Win64; x64) AppleWebKit/537.36 (KHTML, like Gecko) Chrome/108.0.0.0 Safari/537.36" version="20.8.3" etag="2_uuWIFsBqwF-AVJcT2k" type="github">
  <diagram id="j92YHG3TAm9B1M3p_uMZ" name="第 1 页">
    <mxGraphModel dx="1434" dy="764" grid="1" gridSize="10" guides="1" tooltips="1" connect="1" arrows="1" fold="1" page="1" pageScale="1" pageWidth="827" pageHeight="1169" math="0" shadow="0">
      <root>
        <mxCell id="0" />
        <mxCell id="1" parent="0" />
        <mxCell id="S7MoDNT-Vz3GTzjNu3BX-1" value="" style="rounded=0;whiteSpace=wrap;html=1;fontSize=18;" vertex="1" parent="1">
          <mxGeometry x="220" y="57" width="360" height="543" as="geometry" />
        </mxCell>
        <mxCell id="S7MoDNT-Vz3GTzjNu3BX-4" value="" style="edgeStyle=orthogonalEdgeStyle;rounded=0;orthogonalLoop=1;jettySize=auto;html=1;fontSize=18;" edge="1" parent="1" source="S7MoDNT-Vz3GTzjNu3BX-5" target="S7MoDNT-Vz3GTzjNu3BX-7">
          <mxGeometry relative="1" as="geometry" />
        </mxCell>
        <mxCell id="S7MoDNT-Vz3GTzjNu3BX-5" value="&lt;font style=&quot;font-size: 18px;&quot;&gt;公司网页&lt;/font&gt;" style="rounded=1;whiteSpace=wrap;html=1;" vertex="1" parent="1">
          <mxGeometry x="330" y="150" width="120" height="60" as="geometry" />
        </mxCell>
        <mxCell id="S7MoDNT-Vz3GTzjNu3BX-19" value="" style="edgeStyle=orthogonalEdgeStyle;rounded=0;orthogonalLoop=1;jettySize=auto;html=1;" edge="1" parent="1" source="S7MoDNT-Vz3GTzjNu3BX-7" target="S7MoDNT-Vz3GTzjNu3BX-8">
          <mxGeometry relative="1" as="geometry" />
        </mxCell>
        <mxCell id="S7MoDNT-Vz3GTzjNu3BX-7" value="&lt;font style=&quot;font-size: 13px;&quot;&gt;网页中的元素及其位置信息保留&lt;/font&gt;" style="rounded=0;whiteSpace=wrap;html=1;" vertex="1" parent="1">
          <mxGeometry x="280" y="270" width="220" height="60" as="geometry" />
        </mxCell>
        <mxCell id="S7MoDNT-Vz3GTzjNu3BX-20" value="" style="edgeStyle=orthogonalEdgeStyle;rounded=0;orthogonalLoop=1;jettySize=auto;html=1;" edge="1" parent="1" source="S7MoDNT-Vz3GTzjNu3BX-8" target="S7MoDNT-Vz3GTzjNu3BX-18">
          <mxGeometry relative="1" as="geometry" />
        </mxCell>
        <mxCell id="S7MoDNT-Vz3GTzjNu3BX-8" value="图神经网络" style="shape=hexagon;perimeter=hexagonPerimeter2;whiteSpace=wrap;html=1;fixedSize=1;fontSize=13;" vertex="1" parent="1">
          <mxGeometry x="295" y="390" width="190" height="50" as="geometry" />
        </mxCell>
        <mxCell id="S7MoDNT-Vz3GTzjNu3BX-16" value="&lt;font style=&quot;font-size: 18px;&quot;&gt;方案3：文字及其位置+图神经网络&lt;/font&gt;" style="text;html=1;strokeColor=none;fillColor=none;align=center;verticalAlign=middle;whiteSpace=wrap;rounded=0;fontSize=13;" vertex="1" parent="1">
          <mxGeometry x="242" y="77" width="340" height="30" as="geometry" />
        </mxCell>
        <mxCell id="S7MoDNT-Vz3GTzjNu3BX-18" value="&lt;br style=&quot;border-color: var(--border-color); font-size: 13px;&quot;&gt;&lt;span style=&quot;font-size: 13px;&quot;&gt;预测ROI(region of interest)及&lt;/span&gt;&lt;span style=&quot;font-size: 13px;&quot;&gt;内部的结构化信息&lt;/span&gt;" style="rounded=1;whiteSpace=wrap;html=1;" vertex="1" parent="1">
          <mxGeometry x="307.5" y="490" width="165" height="60" as="geometry" />
        </mxCell>
      </root>
    </mxGraphModel>
  </diagram>
</mxfile>
